<svg width="154" height="49" viewBox="0 0 154 49" fill="none" xmlns="http://www.w3.org/2000/svg">
<path d="M0.65375 48V0.959999H7.56575C10.1898 0.959999 12.3764 1.536 14.1258 2.688C15.8964 3.84 17.2191 5.472 18.0938 7.584C18.9684 9.696 19.4058 12.1813 19.4058 15.04C19.4058 17.8987 18.9471 20.3627 18.0298 22.432C17.1124 24.5013 15.7684 26.1227 13.9978 27.296C12.2484 28.448 10.1044 29.0773 7.56575 29.184V48H0.65375ZM7.56575 22.144C8.78175 22.144 9.74175 21.9093 10.4458 21.44C11.1498 20.9493 11.6511 20.1813 11.9498 19.136C12.2698 18.0907 12.4298 16.7467 12.4298 15.104C12.4298 13.44 12.2698 12.0853 11.9498 11.04C11.6511 9.99466 11.1391 9.22666 10.4138 8.736C9.70975 8.24533 8.76042 8 7.56575 8V22.144ZM29.4438 48.512C26.8624 48.512 24.8251 47.6267 23.3318 45.856C21.8598 44.064 21.1238 41.8773 21.1238 39.296V21.696C21.1238 18.9653 21.8598 16.7467 23.3318 15.04C24.8038 13.3333 26.8624 12.48 29.5078 12.48C31.2358 12.48 32.7184 12.8747 33.9558 13.664C35.2144 14.4533 36.1744 15.5307 36.8358 16.896C37.4971 18.24 37.8278 19.776 37.8278 21.504V31.68H27.1398V39.296C27.1398 40.1707 27.3318 40.9813 27.7158 41.728C28.1211 42.4533 28.7184 42.816 29.5078 42.816C30.3398 42.816 30.9264 42.4747 31.2678 41.792C31.6304 41.1093 31.8118 40.2773 31.8118 39.296V35.456H37.8278V39.488C37.8278 42.1973 37.0918 44.384 35.6198 46.048C34.1691 47.6907 32.1104 48.512 29.4438 48.512ZM27.1398 26.624H31.8118V21.696C31.8118 20.736 31.6411 19.904 31.2998 19.2C30.9798 18.4747 30.3824 18.112 29.5078 18.112C28.6971 18.112 28.0998 18.4853 27.7158 19.232C27.3318 19.9573 27.1398 20.7787 27.1398 21.696V26.624ZM49.7893 48.512C47.7626 48.512 46.2159 48.064 45.1493 47.168C44.0826 46.272 43.3466 44.992 42.9413 43.328C42.5573 41.664 42.3653 39.68 42.3653 37.376V18.816H39.1013V12.992H42.3653V4.352H48.8293V12.992H53.2773V18.816H48.8293V38.304C48.8293 39.6693 49.0319 40.6827 49.4373 41.344C49.8426 41.984 50.5039 42.304 51.4213 42.304C51.8266 42.304 52.1786 42.272 52.4773 42.208C52.7973 42.144 53.0533 42.0693 53.2453 41.984V47.904C52.8186 48.0747 52.3493 48.2133 51.8373 48.32C51.3466 48.448 50.6639 48.512 49.7893 48.512Z" fill="white"/>
<path d="M56.1538 48V0.959999H64.9218L68.6978 25.344L69.0178 27.84H69.1458L69.4658 25.344L73.2418 0.959999H82.0098V48H75.6098V16.448H75.2258L74.9698 18.432L70.8738 48H67.2898L63.1938 18.432L62.9378 16.448H62.5538V48H56.1538ZM94.1938 48.512C91.6124 48.512 89.5751 47.6267 88.0818 45.856C86.6098 44.064 85.8738 41.8773 85.8738 39.296V21.696C85.8738 18.9653 86.6098 16.7467 88.0818 15.04C89.5538 13.3333 91.6124 12.48 94.2578 12.48C95.9858 12.48 97.4684 12.8747 98.7058 13.664C99.9644 14.4533 100.924 15.5307 101.586 16.896C102.247 18.24 102.578 19.776 102.578 21.504V31.68H91.8898V39.296C91.8898 40.1707 92.0818 40.9813 92.4658 41.728C92.8711 42.4533 93.4684 42.816 94.2578 42.816C95.0898 42.816 95.6764 42.4747 96.0178 41.792C96.3804 41.1093 96.5618 40.2773 96.5618 39.296V35.456H102.578V39.488C102.578 42.1973 101.842 44.384 100.37 46.048C98.9191 47.6907 96.8604 48.512 94.1938 48.512ZM91.8898 26.624H96.5618V21.696C96.5618 20.736 96.3911 19.904 96.0498 19.2C95.7298 18.4747 95.1324 18.112 94.2578 18.112C93.4471 18.112 92.8498 18.4853 92.4658 19.232C92.0818 19.9573 91.8898 20.7787 91.8898 21.696V26.624ZM110.116 48.512C109.049 48.512 108.142 48.1813 107.396 47.52C106.649 46.8587 106.084 46.0053 105.7 44.96C105.316 43.8933 105.124 42.7947 105.124 41.664V19.328C105.124 18.1973 105.305 17.1093 105.668 16.064C106.052 15.0187 106.617 14.1653 107.364 13.504C108.11 12.8213 109.028 12.48 110.116 12.48C110.926 12.48 111.78 12.7573 112.676 13.312C113.572 13.8667 114.425 14.528 115.236 15.296V0.959999H121.7V48H115.236V45.696C114.382 46.4427 113.54 47.104 112.708 47.68C111.876 48.2347 111.012 48.512 110.116 48.512ZM113.188 42.432C113.678 42.432 114.137 42.2293 114.564 41.824C115.012 41.4187 115.236 40.9173 115.236 40.32V20.672C115.236 20.16 115.012 19.68 114.564 19.232C114.137 18.784 113.678 18.56 113.188 18.56C112.718 18.56 112.334 18.7627 112.036 19.168C111.737 19.552 111.588 20.0533 111.588 20.672V40.32C111.588 40.9173 111.737 41.4187 112.036 41.824C112.334 42.2293 112.718 42.432 113.188 42.432ZM126.264 48V12.992H132.728V48H126.264ZM126.264 7.424V0.959999H132.728V7.424H126.264ZM135.136 48L141.152 29.952L135.648 12.992H141.728L144.032 21.504L144.224 22.784H144.352L144.544 21.504L146.848 12.992H152.928L147.424 29.952L153.44 48H147.168L144.544 38.848L144.352 37.568H144.224L144.032 38.848L141.408 48H135.136Z" fill="#FE4A49"/>
</svg>
